<svg width="60" height="60" viewBox="0 0 60 60" fill="none" xmlns="http://www.w3.org/2000/svg">
<g clip-path="url(#clip0_135_144)">
<path d="M45.9375 0H14.0625C6.296 0 0 6.296 0 14.0625V45.9375C0 53.704 6.296 60 14.0625 60H45.9375C53.704 60 60 53.704 60 45.9375V14.0625C60 6.296 53.704 0 45.9375 0Z" fill="#5865F2"/>
<mask id="mask0_135_144" style="mask-type:luminance" maskUnits="userSpaceOnUse" x="6" y="11" width="48" height="38">
<path d="M6.5625 11.9531H53.4375V48.2648H6.5625V11.9531Z" fill="white"/>
</mask>
<g mask="url(#mask0_135_144)">
<path d="M46.2439 15.1869C43.2049 13.7921 39.9977 12.7973 36.7027 12.2275C36.6728 12.222 36.6419 12.2261 36.6144 12.2391C36.5869 12.2521 36.5642 12.2735 36.5495 12.3001C36.1374 13.0328 35.6809 13.989 35.3614 14.7404C31.7584 14.2009 28.1741 14.2009 24.6451 14.7404C24.3254 13.9721 23.8524 13.0328 23.4385 12.3001C23.4233 12.2739 23.4004 12.2529 23.373 12.24C23.3456 12.227 23.3149 12.2226 23.285 12.2275C19.9897 12.796 16.7824 13.7908 13.7438 15.1869C13.718 15.1982 13.6961 15.217 13.681 15.2408C7.60415 24.3196 5.93962 33.1752 6.75619 41.9211C6.76116 41.9643 6.78308 42.0038 6.81712 42.0308C10.8263 44.9753 14.7102 46.7629 18.5218 47.9476C18.5515 47.9564 18.5831 47.9559 18.6125 47.9463C18.6419 47.9367 18.6676 47.9183 18.6863 47.8937C19.588 46.6623 20.3917 45.3641 21.081 43.9989C21.0904 43.9802 21.0959 43.9597 21.0969 43.9387C21.0978 43.9178 21.0944 43.8969 21.0867 43.8773C21.079 43.8578 21.0673 43.8402 21.0523 43.8255C21.0373 43.8109 21.0193 43.7996 20.9996 43.7924C19.7246 43.3086 18.5108 42.7192 17.3431 42.0496C17.3219 42.037 17.304 42.0195 17.2911 41.9984C17.2783 41.9774 17.2708 41.9535 17.2693 41.9288C17.2678 41.9042 17.2725 41.8796 17.2828 41.8571C17.2931 41.8347 17.3087 41.8151 17.3284 41.8002C17.5747 41.6161 17.8168 41.4263 18.0545 41.2311C18.0753 41.214 18.1005 41.203 18.1272 41.1993C18.154 41.1957 18.1812 41.1995 18.2059 41.2105C25.8774 44.713 34.1825 44.713 41.7634 41.2105C41.7881 41.1989 41.8157 41.1945 41.8428 41.1978C41.87 41.2011 41.8957 41.212 41.9169 41.2293C42.1548 41.4255 42.3975 41.6159 42.6449 41.8002C42.6646 41.815 42.6804 41.8344 42.6908 41.8568C42.7013 41.8791 42.7061 41.9037 42.7048 41.9283C42.7035 41.953 42.6962 41.9769 42.6835 41.998C42.6708 42.0192 42.6531 42.0369 42.632 42.0496C41.4637 42.7318 40.2399 43.3141 38.9736 43.7905C38.954 43.7981 38.9362 43.8097 38.9213 43.8246C38.9065 43.8395 38.895 43.8573 38.8875 43.877C38.88 43.8966 38.8767 43.9176 38.8779 43.9386C38.879 43.9596 38.8846 43.9802 38.8942 43.9989C39.5953 45.3533 40.395 46.6545 41.2867 47.8918C41.3049 47.9171 41.3305 47.936 41.36 47.946C41.3895 47.956 41.4214 47.9565 41.4512 47.9476C45.2813 46.7629 49.1652 44.9753 53.1746 42.0308C53.1918 42.0181 53.206 42.002 53.2165 41.9834C53.227 41.9648 53.2335 41.9442 53.2356 41.923C54.2129 31.8118 51.5984 23.0286 46.3049 15.2427C46.292 15.2173 46.2703 15.1975 46.2439 15.1869ZM22.2266 36.5959C19.9168 36.5959 18.0137 34.4755 18.0137 31.8714C18.0137 29.2672 19.88 27.1468 22.2266 27.1468C24.5914 27.1468 26.476 29.286 26.439 31.8714C26.439 34.4755 24.5729 36.5959 22.2266 36.5959ZM37.8022 36.5959C35.4924 36.5959 33.5895 34.4755 33.5895 31.8714C33.5895 29.2672 35.4556 27.1468 37.8022 27.1468C40.167 27.1468 42.0517 29.286 42.0149 31.8714C42.0149 34.4755 40.167 36.5959 37.8022 36.5959Z" fill="white"/>
</g>
</g>
<defs>
<clipPath id="clip0_135_144">
<rect width="60" height="60" fill="white"/>
</clipPath>
</defs>
</svg>
