<svg width="119" height="103" viewBox="0 0 119 103" fill="none" xmlns="http://www.w3.org/2000/svg">
<g clip-path="url(#clip0_204_7)">
<path d="M74.6719 78.2148L96.3516 95.3828L88.7344 102.414L67.4062 85.4805L74.6719 78.2148ZM96.0586 42.6484V48.0391C96.0586 54.4453 95.2578 60.1875 93.6562 65.2656C92.0547 70.3438 89.75 74.6602 86.7422 78.2148C83.7344 81.7695 80.1211 84.4844 75.9023 86.3594C71.7227 88.2344 67.0352 89.1719 61.8398 89.1719C56.8008 89.1719 52.1719 88.2344 47.9531 86.3594C43.7734 84.4844 40.1406 81.7695 37.0547 78.2148C34.0078 74.6602 31.6445 70.3438 29.9648 65.2656C28.2852 60.1875 27.4453 54.4453 27.4453 48.0391V42.6484C27.4453 36.2422 28.2656 30.5195 29.9062 25.4805C31.5859 20.4023 33.9492 16.0859 36.9961 12.5312C40.043 8.9375 43.6562 6.20312 47.8359 4.32812C52.0547 2.45312 56.6836 1.51562 61.7227 1.51562C66.918 1.51562 71.625 2.45312 75.8438 4.32812C80.0625 6.20312 83.6758 8.9375 86.6836 12.5312C89.6914 16.0859 91.9961 20.4023 93.5977 25.4805C95.2383 30.5195 96.0586 36.2422 96.0586 42.6484ZM84.8672 48.0391V42.5312C84.8672 37.4531 84.3398 32.9609 83.2852 29.0547C82.2695 25.1484 80.7656 21.8672 78.7734 19.2109C76.7812 16.5547 74.3594 14.543 71.5078 13.1758C68.6562 11.8086 65.3945 11.125 61.7227 11.125C58.2461 11.125 55.082 11.8086 52.2305 13.1758C49.418 14.543 46.9961 16.5547 44.9648 19.2109C42.9336 21.8672 41.3711 25.1484 40.2773 29.0547C39.1836 32.9609 38.6367 37.4531 38.6367 42.5312V48.0391C38.6367 53.1562 39.1836 57.6875 40.2773 61.6328C41.3711 65.5391 42.9336 68.8398 44.9648 71.5352C47.0352 74.1914 49.4961 76.2031 52.3477 77.5703C55.1992 78.9375 58.3633 79.6211 61.8398 79.6211C65.5117 79.6211 68.7734 78.9375 71.625 77.5703C74.4766 76.2031 76.8789 74.1914 78.832 71.5352C80.8242 68.8398 82.3281 65.5391 83.3438 61.6328C84.3594 57.6875 84.8672 53.1562 84.8672 48.0391Z" fill="#474747"/>
<path d="M58.4414 76.0508L83.5781 3.6875H95.8242L64.2422 89H55.5117L58.4414 76.0508ZM34.9453 3.6875L59.8477 76.0508L62.9531 89H54.2227L22.6992 3.6875H34.9453Z" fill="#474747"/>
</g>
<defs>
<clipPath id="clip0_204_7">
<rect width="119" height="103" fill="white"/>
</clipPath>
</defs>
</svg>
